<svg id="图层_1" data-name="图层 1" xmlns="http://www.w3.org/2000/svg" viewBox="0 0 16 16"><defs><style>.cls-1,.cls-2{fill:#f6f6f6;}.cls-1{fill-opacity:0;}.cls-3{fill:#424242;}.cls-4{fill:#f0eff1;}.cls-5{fill:#ea5f40;}</style></defs><title>AddTest_16x_light</title><path id="canvas" class="cls-1" d="M16,16H0V0H16Z"/><path id="outline" class="cls-2" d="M15.4,14a2.1,2.1,0,0,1-1.8,1H5.3a2.23,2.23,0,0,1-1.8-1,1.82,1.82,0,0,1,.1-2L6.2,8H3V6H1V2H3V0H7V2H9V3h4V6H12v.7l3.4,5.2A2.23,2.23,0,0,1,15.4,14Z"/><path id="iconBg" class="cls-3" d="M13.7,14H5.3a.94.94,0,0,1-.8-1.5L8,7V6H9V7.3L7.3,10h4.4L10,7.3V5H9V4h3V5H11V7l3.5,5.5A1,1,0,0,1,13.7,14Z"/><path id="iconFg" class="cls-4" d="M7.3,10,9,7.3V5h1V7.3L11.7,10Z"/><path id="colorAction" class="cls-5" d="M4,5H2V3H4V1H6V3H8V5H6V7H4Z"/></svg>